<svg width="183" height="114" viewBox="0 0 183 114" fill="none" xmlns="http://www.w3.org/2000/svg">
<path d="M91.7731 75.9343C116.058 75.9343 135.744 59.5861 135.744 39.4195C135.744 19.253 116.058 2.90479 91.7731 2.90479C67.4884 2.90479 47.8018 19.253 47.8018 39.4195C47.8018 59.5861 67.4884 75.9343 91.7731 75.9343Z" fill="#1A6DAF"/>
<path d="M74.8489 76.6565L91.7731 64.1128" stroke="#FDCD12" stroke-width="0.73285" stroke-miterlimit="10" stroke-linecap="round" stroke-linejoin="round"/>
<path d="M87.1862 12.7556L104.901 1" stroke="#FDCD12" stroke-width="0.73285" stroke-miterlimit="10" stroke-linecap="round" stroke-linejoin="round"/>
<path d="M120.797 47.3001L138.592 35.5444" stroke="#FDCD12" stroke-width="0.73285" stroke-miterlimit="10" stroke-linecap="round" stroke-linejoin="round"/>
<path d="M121.114 35.9387L136.852 24.3145" stroke="#F45EAC" stroke-width="0.73285" stroke-miterlimit="10" stroke-linecap="round" stroke-linejoin="round"/>
<path d="M55.473 73.4383L71.211 61.814" stroke="#1A6DAF" stroke-width="0.73285" stroke-miterlimit="10" stroke-linecap="round" stroke-linejoin="round"/>
<path d="M47.3273 52.1602L63.6188 40.9956" stroke="#F45EAC" stroke-width="0.73285" stroke-miterlimit="10" stroke-linecap="round" stroke-linejoin="round"/>
<path d="M106.404 15.2512L122.933 4.41504" stroke="#F45EAC" stroke-width="0.73285" stroke-miterlimit="10" stroke-linecap="round" stroke-linejoin="round"/>
<path d="M50.0952 22.607L66.2286 11.311" stroke="#F45EAC" stroke-width="0.73285" stroke-miterlimit="10" stroke-linecap="round" stroke-linejoin="round"/>
<path d="M49.2253 60.2381L81.8084 36.5298" stroke="#25ABBE" stroke-width="0.73285" stroke-miterlimit="10" stroke-linecap="round" stroke-linejoin="round"/>
<path d="M105.692 71.074L138.354 47.3657" stroke="#25ABBE" stroke-width="0.73285" stroke-miterlimit="10" stroke-linecap="round" stroke-linejoin="round"/>
<path d="M135.033 46.1182L93.3549 75.8685C114.154 75.2774 131.316 62.668 135.033 46.1182Z" fill="#25ABBE"/>
<path d="M135.744 38.3027L84.1018 75.4085C86.6325 75.8026 89.1633 75.9996 91.7731 75.9996C92.3267 75.9996 92.8012 75.9996 93.3548 75.9339L134.954 46.1836C135.428 44.0164 135.744 41.7178 135.744 39.4192C135.744 39.0251 135.744 38.6311 135.744 38.3027Z" fill="#1A6DAF"/>
<path d="M77.3005 73.8981C79.6731 74.5548 82.1247 75.0802 84.6555 75.4742L135.665 38.3684C135.586 35.7415 135.112 33.1802 134.4 30.6846L77.3005 73.8981Z" fill="#FDCD12"/>
<path d="M129.655 20.8335L65.5168 68.7098C69.0757 70.9428 73.0299 72.6503 77.3005 73.8981L134.4 30.6189C133.451 27.1382 131.79 23.8545 129.655 20.8335Z" fill="#F45EAC"/>
<path d="M91.7732 2.90479C70.3411 2.90479 52.4678 15.6455 48.5927 32.5238L94.6202 2.97046C93.6712 2.90479 92.7222 2.90479 91.7732 2.90479Z" fill="#F45EAC"/>
<path d="M123.407 14.0693L55.473 60.0411C58.241 63.4562 61.7208 66.4115 65.7541 68.8414L129.734 20.8994C127.915 18.4038 125.78 16.1052 123.407 14.0693Z" fill="#1A6DAF"/>
<path d="M101.026 3.69287L47.9599 37.8433L47.8808 37.909C47.8808 38.4344 47.8018 38.8941 47.8018 39.4195C47.8018 40.733 47.8808 42.1122 48.039 43.36L112.889 7.37061C109.251 5.66309 105.218 4.41529 101.026 3.69287Z" fill="#1A6DAF"/>
<path d="M117.555 9.80029L50.8861 52.8824C52.0724 55.378 53.6541 57.808 55.473 59.9752L123.407 14.0034C121.588 12.4929 119.69 11.1138 117.555 9.80029Z" fill="#25ABBE"/>
<path d="M112.889 7.37061L48.0391 43.36C48.4345 46.7093 49.4626 49.8617 50.8861 52.8827L117.555 9.80054C116.052 8.94678 114.55 8.09302 112.889 7.37061Z" fill="#F45EAC"/>
<path d="M93.9875 2.90479L50.2534 27.2042C48.6717 30.9476 47.8017 34.888 47.7227 39.0912L102.212 3.88989C99.5235 3.3645 96.8346 3.03613 93.9875 2.90479Z" fill="#FDCD12"/>
<path d="M25.9058 109.852L25.6515 110.249C25.2352 110.031 24.7753 109.922 24.2717 109.922C23.9017 109.922 23.6242 109.991 23.4392 110.127C23.2594 110.264 23.1694 110.426 23.1694 110.614C23.1694 110.797 23.2414 110.947 23.3853 111.062C23.5291 111.177 23.7604 111.26 24.079 111.311L24.8421 111.446C25.7619 111.604 26.2219 112.031 26.2219 112.726C26.2219 113.089 26.0497 113.392 25.7054 113.635C25.3611 113.878 24.8678 114 24.2255 114C23.8555 114 23.5394 113.974 23.2773 113.923C23.0101 113.868 22.7275 113.776 22.4294 113.648L22.6376 113.193C23.1514 113.441 23.6756 113.565 24.21 113.565C24.7034 113.565 25.0631 113.488 25.2892 113.334C25.5153 113.181 25.6283 112.98 25.6283 112.733C25.6283 112.485 25.5487 112.297 25.3894 112.169C25.2301 112.037 24.9603 111.937 24.58 111.868L23.7398 111.728C23.3955 111.668 23.1206 111.544 22.9151 111.356C22.7044 111.173 22.599 110.934 22.599 110.639C22.599 110.302 22.7481 110.029 23.0461 109.82C23.339 109.607 23.7475 109.5 24.2717 109.5C24.9038 109.5 25.4485 109.617 25.9058 109.852Z" fill="#FFFEFE"/>
<path d="M30.1068 110.012H28.5035V109.59H32.3114V110.012H30.7081V113.917H30.1068V110.012Z" fill="#FFFEFE"/>
<path d="M35.0015 113.917V109.59H37.0441C37.5683 109.59 37.9948 109.697 38.3237 109.91C38.6526 110.128 38.817 110.42 38.817 110.787C38.817 111.039 38.7117 111.269 38.501 111.478C38.2903 111.687 37.9922 111.834 37.6068 111.92L39.187 113.917H38.4547L36.9979 112.003H35.6027V113.917H35.0015ZM36.9208 110.012H35.6027V111.574H36.9285C37.3139 111.574 37.6248 111.506 37.8612 111.369C38.0976 111.233 38.2158 111.039 38.2158 110.787C38.2158 110.27 37.7841 110.012 36.9208 110.012Z" fill="#FFFEFE"/>
<path d="M45.1762 113.917H41.7924V109.59H45.0529V110.012H42.3936V111.446H44.7908V111.869H42.3936V113.482H45.1762V113.917Z" fill="#FFFEFE"/>
<path d="M47.8973 113.917V109.59H48.5371L52.1445 113.322L52.1137 111.997V109.59H52.6841V113.917H52.0212L48.4138 110.153L48.4677 111.683V113.917H47.8973Z" fill="#FFFEFE"/>
<path d="M58.1954 112.073V111.657H60.1609V113.488C59.5957 113.829 58.8917 114 58.0489 114C57.5607 114 57.1188 113.917 56.7231 113.75C56.3223 113.58 55.996 113.321 55.7442 112.976C55.4924 112.63 55.3665 112.223 55.3665 111.753C55.3665 111.096 55.6337 110.556 56.1681 110.134C56.7025 109.711 57.3577 109.5 58.1337 109.5C58.8788 109.5 59.5212 109.647 60.0607 109.942L59.8064 110.332C59.3285 110.063 58.7709 109.929 58.1337 109.929C57.4811 109.929 56.9569 110.1 56.5612 110.441C56.1655 110.782 55.9677 111.22 55.9677 111.753C55.9677 112.299 56.1758 112.739 56.5921 113.072C57.0032 113.405 57.5145 113.571 58.126 113.571C58.681 113.571 59.1717 113.469 59.5982 113.264V112.073H58.1954Z" fill="#FFFEFE"/>
<path d="M64.4159 110.012H62.8126V109.59H66.6205V110.012H65.0172V113.917H64.4159V110.012Z" fill="#FFFEFE"/>
<path d="M72.9488 111.44V109.59H73.5501V113.917H72.9488V111.862H69.9041V113.917H69.3029V109.59H69.9041V111.44H72.9488Z" fill="#FFFEFE"/>
<path d="M84.2954 111.44V109.59H84.8966V113.917H84.2954V111.862H81.2507V113.917H80.6494V109.59H81.2507V111.44H84.2954Z" fill="#FFFEFE"/>
<path d="M91.1633 113.917H87.7794V109.59H91.04V110.012H88.3807V111.446H90.7779V111.869H88.3807V113.482H91.1633V113.917Z" fill="#FFFEFE"/>
<path d="M93.5682 113.917L95.819 109.59H96.5282L98.7713 113.917H98.1392L97.3915 112.458H94.9172L94.1849 113.917H93.5682ZM96.2121 110.102H96.1042L95.1253 112.041H97.1834L96.2121 110.102Z" fill="#FFFEFE"/>
<path d="M101.939 109.59V113.482H104.452V113.917H101.338V109.59H101.939Z" fill="#FFFEFE"/>
<path d="M107.859 110.012H106.256V109.59H110.064V110.012H108.461V113.917H107.859V110.012Z" fill="#FFFEFE"/>
<path d="M116.4 111.44V109.59H117.001V113.917H116.4V111.862H113.355V113.917H112.754V109.59H113.355V111.44H116.4Z" fill="#FFFEFE"/>
<path d="M124.093 113.917V109.59H125.904C126.408 109.59 126.819 109.679 127.137 109.859C127.451 110.042 127.608 110.315 127.608 110.678C127.608 110.849 127.561 111.013 127.469 111.171C127.376 111.333 127.243 111.457 127.068 111.542V111.574C127.356 111.66 127.579 111.796 127.739 111.984C127.898 112.167 127.978 112.381 127.978 112.624C127.978 113.004 127.813 113.315 127.484 113.558C127.155 113.797 126.716 113.917 126.166 113.917H124.093ZM126.166 111.824H124.686V113.488H126.089C126.485 113.488 126.801 113.418 127.037 113.277C127.268 113.14 127.384 112.931 127.384 112.65C127.384 112.099 126.978 111.824 126.166 111.824ZM125.973 109.993H124.686V111.427H126.074C126.382 111.427 126.616 111.361 126.775 111.229C126.934 111.096 127.014 110.919 127.014 110.697C127.014 110.471 126.922 110.298 126.737 110.179C126.552 110.055 126.297 109.993 125.973 109.993Z" fill="#FFFEFE"/>
<path d="M134.083 113.917H130.699V109.59H133.967V110.012H131.3V111.446H133.697V111.869H131.3V113.482H134.083V113.917Z" fill="#FFFEFE"/>
<path d="M136.487 113.917L138.738 109.59H139.447L141.69 113.917H141.058L140.311 112.458H137.836L137.104 113.917H136.487ZM139.131 110.102H139.023L138.044 112.041H140.103L139.131 110.102Z" fill="#FFFEFE"/>
<path d="M144.057 111.984V109.59H144.658V112.029C144.658 112.541 144.797 112.927 145.074 113.187C145.347 113.448 145.73 113.578 146.223 113.578C146.711 113.578 147.096 113.448 147.379 113.187C147.657 112.927 147.795 112.541 147.795 112.029V109.59H148.397V111.984C148.397 112.658 148.204 113.164 147.818 113.501C147.438 113.834 146.906 114 146.223 114C145.539 114 145.008 113.834 144.627 113.501C144.247 113.168 144.057 112.662 144.057 111.984Z" fill="#FFFEFE"/>
<path d="M152.644 110.012H151.041V109.59H154.848V110.012H153.245V113.917H152.644V110.012Z" fill="#FFFEFE"/>
<path d="M159.234 112.24L157.215 109.59H157.885L159.512 111.753H159.558L161.161 109.59H161.832L159.828 112.233V113.917H159.234V112.24Z" fill="#FFFEFE"/>
<path d="M91.9233 70.7536C112.869 70.7536 129.849 56.6529 129.849 39.2589C129.849 21.8648 112.869 7.76416 91.9233 7.76416C70.9772 7.76416 53.9971 21.8648 53.9971 39.2589C53.9971 56.6529 70.9772 70.7536 91.9233 70.7536Z" fill="#EEF2F5"/>
<path d="M114.459 33.8639C113.799 33.634 112.788 34.107 112.788 34.107C112.788 34.107 112.5 33.9559 112.3 33.8639C112.101 33.772 111.409 33.9666 111.434 34.3984C111.467 34.951 112.805 35.7507 111.791 36.1185C110.215 36.6908 107.128 36.2835 105.889 36.584C103.294 33.1381 106.584 29.9443 101.533 27.6741L101.887 27.0715C102.616 27.2291 102.789 27.6799 103.834 27.7021C105.686 27.7415 106.748 25.2595 106.489 23.4146C106.279 21.9261 104.532 20.637 102.511 20.8054C100.491 20.9737 98.9481 22.6166 99.2576 24.4557C99.4434 25.5608 98.6515 26.8901 96.774 26.6832C93.4717 26.3194 92.7875 27.317 87.9963 28.3334C87.4515 28.4492 86.9483 28.7259 86.7308 29.1922C86.2127 30.3039 84.7366 36.1119 84.783 37.0389C84.8305 37.9519 87.2686 38.5258 87.8094 38.1358C88.3502 37.7466 88.4066 36.8229 88.4066 36.8229C88.4066 36.8229 89.0394 36.8229 89.1106 36.465C89.1471 36.2769 89.1896 35.9099 88.5134 35.6554C88.0497 35.4814 86.8593 36.2589 87.0669 35.0191C87.2745 33.7794 88.5994 32.9994 89.1946 30.7456C91.8265 30.9731 91.8661 30.2325 93.6655 30.2226C92.8004 32.9772 95.7961 37.5701 92.8775 38.5438C88.5509 39.9864 88.806 43.0456 88.806 43.0456C88.806 43.0456 86.976 44.2262 83.2673 45.3765C81.5816 43.8494 78.3061 44.2689 76.0093 43.5431C74.3354 43.0135 73.6256 40.9051 72.5499 42.626C71.7984 43.8272 69.7706 47.1171 69.7706 47.1171C71.0114 47.792 74.0151 44.631 74.0151 44.631L77.3895 46.4159C78.7569 47.1294 80.063 47.9307 81.46 48.6064C82.8907 49.2986 88.5717 48.7624 94.7807 44.9077C100.703 47.012 104.189 45.8297 106.735 47.0571C105.018 50.6048 105.799 53.8865 105.799 55.5959C105.799 57.3053 103.384 59.1847 106.326 59.1847H113.195C113.126 57.6534 107.993 57.4917 108.025 56.201C108.053 55.0754 110.441 48.4431 110.933 46.6401C111.207 45.6351 107.964 41.961 99.0222 40.5751C99.8626 39.286 101 35.9912 101.095 34.4543C101.822 36.9658 103.715 38.791 103.715 38.791C104.04 39.1054 104.538 39.2787 105.076 39.245C106.793 39.1391 111.818 38.8419 114.705 36.974C115.574 36.4141 115.118 34.093 114.459 33.8639Z" fill="#2C3E50" stroke="black" stroke-width="0.458093" stroke-miterlimit="10" stroke-linecap="round"/>
</svg>
