<svg width="268" height="240" viewBox="0 0 268 240" fill="none" xmlns="http://www.w3.org/2000/svg">
<g clip-path="url(#clip0_144_2)">
<path fill-rule="evenodd" clip-rule="evenodd" d="M187.071 204.342C203.52 193.834 204.434 194.745 195.753 201.143C187.071 207.537 202.606 198.402 194.383 204.342L190.729 207.997C190.729 207.997 184.788 214.851 180.676 215.306C176.563 215.762 185.242 214.851 179.304 217.594C173.364 220.333 129.908 239.94 59.5957 188.808C79.2459 221.705 113.968 236.326 143.21 236.781C143.21 236.781 134.069 236.781 139.097 237.695C144.124 238.609 136.812 245.46 93.8621 229.472C95.6944 233.582 96.15 234.952 101.176 237.695C101.176 237.695 44.9745 218.503 25.3319 161.851C25.7874 168.702 26.243 176.472 26.243 176.472C26.243 176.472 -2.08829 126.21 31.7275 64.0729C65.5383 1.93582 140.014 -0.34709 150.064 0.108486C160.117 0.564062 216.311 13.3579 229.105 26.6099C241.902 39.8569 222.712 31.1783 222.712 31.1783C222.712 31.1783 216.311 34.8329 226.825 40.3124C237.331 45.7995 248.753 64.0729 240.069 57.2191C231.391 50.3678 244.182 65.4446 245.554 66.3583C246.923 67.272 226.364 57.2191 231.849 63.1592C237.331 69.0968 261.089 95.1426 253.324 102.913C245.554 110.678 242.81 89.2025 241.441 87.8333C240.069 86.459 243.731 119.359 241.441 124.838C239.156 130.323 239.614 112.507 235.048 107.023C230.479 101.541 229.105 101.996 225.906 101.996C222.712 101.996 214.031 93.3178 213.115 88.2889C212.201 83.2624 209.46 81.8907 205.345 77.7804C201.235 73.6676 194.839 69.5574 187.071 70.013C179.304 70.4711 183.417 60.8738 170.165 60.8738C156.915 60.8738 149.145 58.5934 137.726 63.6173C126.306 68.6437 105.287 74.5813 103.457 75.0369C101.63 75.495 122.646 63.6173 125.848 61.7874C129.045 59.9626 76.0443 73.6676 67.3631 94.6846C58.6795 115.706 50.9171 151.798 80.6151 184.692C110.313 217.594 163.311 220.788 187.071 204.342Z" fill="#5272FF"/>
<path d="M3.80259 123.425C3.80259 123.571 3.63259 123.645 3.29259 123.645C3.00593 123.645 2.68259 123.571 2.32259 123.425C1.96259 123.278 1.66259 123.061 1.42259 122.775C1.08259 122.488 0.829257 122.248 0.66259 122.055C0.495923 121.861 0.412598 121.621 0.412598 121.335C0.412598 120.948 0.555924 120.321 0.84259 119.455C1.22926 117.728 1.93926 115.255 2.9726 112.035C4.00593 108.815 4.92926 106.388 5.74259 104.755C6.08259 104.175 6.34926 103.571 6.54259 102.945C6.73593 102.325 6.85593 101.918 6.9026 101.725C7.1426 100.858 7.28593 100.351 7.3326 100.205L7.2626 99.4846C7.2626 99.2913 7.30926 99.1013 7.4026 98.9146C7.5026 98.7213 7.67259 98.5046 7.91259 98.2646C8.58592 97.6846 9.30593 96.5546 10.0726 94.8746L12.8126 87.0146L13.6726 84.5646C13.7259 84.3713 13.8226 84.0346 13.9626 83.5546C14.1093 83.0746 14.1826 82.7379 14.1826 82.5446C14.1826 82.3513 14.1359 82.2546 14.0426 82.2546C13.6559 82.3479 12.8859 82.4213 11.7326 82.4746C11.1526 82.5679 10.7193 82.6279 10.4326 82.6546C10.1459 82.6746 9.92926 82.7079 9.78259 82.7546H9.28259C8.36926 82.7546 7.91259 82.4213 7.91259 81.7546C8.00592 80.9813 8.28259 80.3413 8.74259 79.8346C9.19593 79.3346 9.78259 79.0613 10.5026 79.0146L13.3126 78.3646C13.7459 78.2646 14.3359 78.1313 15.0826 77.9646C15.8293 77.7979 16.3459 77.7613 16.6326 77.8546C17.2593 77.4213 17.5726 77.0846 17.5726 76.8446C17.5726 76.6046 17.6926 76.4146 17.9326 76.2746C18.1726 76.1279 18.4593 76.0546 18.7926 76.0546C19.4659 76.0546 19.9493 76.2713 20.2426 76.7046C20.4293 76.9913 20.8359 77.1346 21.4626 77.1346C22.4226 77.1346 24.1059 76.8713 26.5126 76.3446C26.8993 76.2979 27.5593 76.2379 28.4926 76.1646C29.4326 76.0913 30.2126 76.0546 30.8326 76.0546C31.6993 76.0546 32.3993 76.1279 32.9326 76.2746C33.3593 76.1746 33.7426 76.1246 34.0826 76.1246C34.4159 76.1246 34.7026 76.1013 34.9426 76.0546C35.7626 76.0546 36.2693 75.9813 36.4626 75.8346C36.8959 75.9346 37.3893 76.0213 37.9426 76.0946C38.4959 76.1613 38.8926 76.2446 39.1326 76.3446C39.3726 76.4379 39.5859 76.5579 39.7726 76.7046C39.9193 76.8979 39.9926 77.0646 39.9926 77.2046C39.9926 77.3513 39.9693 77.4479 39.9226 77.4946L39.7726 77.4246C39.8259 77.4246 39.9126 77.4613 40.0326 77.5346C40.1526 77.6079 40.2826 77.7146 40.4226 77.8546C41.1493 78.2413 41.3893 78.7946 41.1426 79.5146C41.0959 79.8013 40.9893 80.0046 40.8226 80.1246C40.6559 80.2446 40.2593 80.3179 39.6326 80.3446C39.0059 80.3713 38.1893 80.3579 37.1826 80.3046C35.3559 80.0646 33.7693 79.9446 32.4226 79.9446C30.4026 79.9446 27.6393 80.1846 24.1326 80.6646C23.2659 80.7179 22.4593 80.8379 21.7126 81.0246C20.9726 81.2179 20.5059 81.3413 20.3126 81.3946C20.0726 81.3946 19.7126 81.7546 19.2326 82.4746C18.7526 83.1946 18.3193 84.1079 17.9326 85.2146C17.6459 85.6479 17.1393 86.7879 16.4126 88.6346C15.6926 90.4879 15.2126 91.7013 14.9726 92.2746C13.9193 95.0613 13.3193 96.5746 13.1726 96.8146C13.7526 97.0079 14.9059 97.1046 16.6326 97.1046C19.1326 97.1046 22.4493 96.9146 26.5826 96.5346C28.7959 96.1013 30.0693 95.9546 30.4026 96.0946C30.6893 96.2879 30.9426 96.6479 31.1626 97.1746C31.3759 97.7079 31.4826 98.1913 31.4826 98.6246C31.4826 98.8646 31.4359 99.0813 31.3426 99.2746C31.1959 99.6079 30.6793 99.8713 29.7926 100.065C28.9059 100.258 27.3326 100.475 25.0726 100.715C22.9526 100.908 19.8759 101.005 15.8426 101.005C13.7293 101.005 12.4793 100.955 12.0926 100.855C11.9926 100.901 11.8593 101.045 11.6926 101.285C11.5259 101.531 11.4426 101.821 11.4426 102.155C10.5759 103.695 9.30259 106.675 7.62259 111.095C5.93592 115.515 5.09259 118.158 5.09259 119.025C4.75926 119.891 4.49592 120.878 4.30259 121.985C4.25592 122.178 4.18592 122.441 4.09259 122.775C3.99259 123.115 3.89592 123.331 3.80259 123.425Z" fill="black"/>
<path d="M42.9526 90.4746C42.6126 90.1346 42.3226 89.5579 42.0826 88.7446C41.8426 87.9246 41.8426 87.5146 42.0826 87.5146C42.4693 87.4679 42.916 87.0479 43.4226 86.2546C43.9226 85.4612 44.1493 84.8012 44.1026 84.2746C44.1026 84.0812 44.176 83.9012 44.3226 83.7346C44.4626 83.5679 44.6293 83.4579 44.8226 83.4046C45.2093 83.1646 45.546 83.0446 45.8326 83.0446C46.6526 83.0446 47.3993 83.6212 48.0726 84.7746C48.3593 85.4012 48.5026 85.9546 48.5026 86.4346C48.5026 86.8679 48.3826 87.3146 48.1426 87.7746C47.9026 88.2279 47.4693 88.8146 46.8426 89.5346C46.0293 90.6412 45.2593 91.1946 44.5326 91.1946C44.0526 91.1946 43.526 90.9546 42.9526 90.4746ZM35.9526 119.745C35.2793 119.071 34.9426 118.111 34.9426 116.865C34.9426 116.191 35.0626 115.615 35.3026 115.135C35.3026 114.895 35.3526 114.605 35.4526 114.265C35.546 113.931 35.5926 113.715 35.5926 113.615C35.546 113.328 35.7393 112.535 36.1726 111.235C37.0393 109.315 38.1926 105.928 39.6326 101.075C39.6326 100.835 39.7293 100.631 39.9226 100.465C40.116 100.291 40.4026 100.181 40.7826 100.135C41.1693 100.041 41.436 99.9946 41.5826 99.9946C41.8693 99.9946 42.1193 100.101 42.3326 100.315C42.5526 100.535 42.856 100.931 43.2426 101.505C43.5293 101.791 43.6726 102.225 43.6726 102.805C43.6726 103.718 43.3593 104.825 42.7326 106.125C42.106 107.518 41.6993 108.718 41.5126 109.725C40.9326 111.025 40.476 112.228 40.1426 113.335C40.0426 113.621 39.896 114.198 39.7026 115.065C39.5093 115.925 39.246 116.621 38.9126 117.155C38.626 118.501 38.3626 119.438 38.1226 119.965C37.8826 120.491 37.616 120.755 37.3226 120.755C36.9893 120.755 36.5326 120.418 35.9526 119.745Z" fill="black"/>
<path d="M54.3425 121.545C53.5758 121.405 52.7958 120.888 52.0025 119.995C51.2092 119.108 50.6925 118.281 50.4525 117.515C50.4525 117.415 50.4025 117.305 50.3025 117.185C50.2092 117.065 50.1392 116.981 50.0925 116.935C49.8992 116.788 49.8025 115.995 49.8025 114.555C49.8025 113.401 49.8625 112.201 49.9825 110.955C50.1025 109.701 50.2592 108.691 50.4525 107.925L51.7425 104.105L52.7525 101.215L54.7025 97.0345L51.8225 96.2445C51.4825 96.1979 51.2058 96.0279 50.9925 95.7345C50.7725 95.4479 50.6625 95.1845 50.6625 94.9445C50.6625 94.5579 50.8658 94.0879 51.2725 93.5345C51.6858 92.9812 52.0125 92.7045 52.2525 92.7045C52.3925 92.7579 52.7758 92.7845 53.4025 92.7845C54.8425 92.7845 55.9258 92.7112 56.6525 92.5645C57.1325 92.3712 57.4692 91.9879 57.6625 91.4145C57.8492 91.0279 58.0758 90.5445 58.3425 89.9645C58.6092 89.3912 58.8625 88.8645 59.1025 88.3845C59.2425 88.0979 59.4692 87.6512 59.7825 87.0445C60.0958 86.4445 60.4925 85.7612 60.9725 84.9945C61.0725 84.8479 61.2892 84.4979 61.6225 83.9445C61.9625 83.3979 62.3725 82.9312 62.8525 82.5445C63.1858 82.2045 63.5925 82.0345 64.0725 82.0345C64.5525 82.0345 65.1792 82.3479 65.9525 82.9745C66.0458 83.1212 66.1758 83.3145 66.3425 83.5545C66.5158 83.7945 66.6025 84.0112 66.6025 84.2045C66.6025 84.3979 66.4092 84.8045 66.0225 85.4245C65.7358 86.0045 65.4592 86.5212 65.1925 86.9745C64.9258 87.4345 64.6992 87.8312 64.5125 88.1645C63.9325 89.1245 63.5225 89.8479 63.2825 90.3345C62.8025 90.9545 62.5625 91.4345 62.5625 91.7745C62.5625 92.1079 62.8758 92.2745 63.5025 92.2745C64.1758 92.2745 65.3025 92.1312 66.8825 91.8445C67.5558 91.7512 68.0125 91.7045 68.2525 91.7045C69.9392 91.7045 70.8525 92.4012 70.9925 93.7945C71.0458 94.0812 71.0725 94.4179 71.0725 94.8045C71.0725 95.4779 70.8425 95.8845 70.3825 96.0245C69.9292 96.1712 68.9092 96.2445 67.3225 96.2445C65.7825 96.4845 64.1958 96.6045 62.5625 96.6045C62.2758 96.6045 61.9525 96.6145 61.5925 96.6345C61.2258 96.6612 60.8525 96.7212 60.4725 96.8145C60.0858 96.9145 59.8092 97.0612 59.6425 97.2545C59.4758 97.4479 59.2958 97.7579 59.1025 98.1845C58.9558 98.3312 58.6192 98.8845 58.0925 99.8445C57.4192 101.238 56.9858 102.081 56.7925 102.375C55.4925 106.215 54.5325 110.155 53.9125 114.195C53.8125 114.961 53.7625 115.441 53.7625 115.635C53.7625 116.355 54.0025 116.861 54.4825 117.155C54.9625 117.441 55.7792 117.585 56.9325 117.585C58.5725 117.585 59.9925 117.415 61.1925 117.075C62.6325 116.455 63.7125 115.928 64.4325 115.495C64.8658 115.255 65.2625 115.025 65.6225 114.805C65.9825 114.591 66.2358 114.435 66.3825 114.335C66.5292 114.048 66.6958 113.905 66.8825 113.905C67.2692 113.905 67.6058 114.291 67.8925 115.065C67.8925 115.831 67.7258 116.501 67.3925 117.075C67.0525 117.655 66.2125 118.328 64.8725 119.095C62.0792 120.875 59.2892 121.765 56.5025 121.765C55.7358 121.765 55.0158 121.691 54.3425 121.545Z" fill="black"/>
<path d="M80.7325 126.095C79.2392 125.561 78.0259 124.958 77.0925 124.285C76.1525 123.618 75.3692 122.515 74.7425 120.975C73.9759 118.808 73.5925 116.261 73.5925 113.335C73.5925 110.495 73.7592 108.078 74.0925 106.085C74.4325 104.091 75.0092 102.061 75.8225 99.9945L76.4725 98.4745C77.2459 96.5079 77.7992 95.2112 78.1325 94.5845C78.9525 92.7112 80.3959 90.2845 82.4625 87.3045C84.2892 84.5179 85.7292 82.4845 86.7825 81.2045C87.8425 79.9312 88.8659 78.9112 89.8525 78.1445C90.8392 77.3779 92.6525 76.0812 95.2925 74.2545C96.3992 73.4345 97.6725 73.0245 99.1125 73.0245C100.319 73.0245 101.439 73.3245 102.473 73.9245C103.506 74.5245 104.286 75.3779 104.813 76.4845C105.339 77.3979 105.603 78.6245 105.603 80.1645C105.603 82.3245 105.123 84.5845 104.163 86.9445C103.203 89.2979 101.976 91.1479 100.483 92.4945C100.003 92.9279 99.5459 93.1445 99.1125 93.1445C98.5859 93.1445 97.8892 92.7579 97.0225 91.9845C96.5892 91.1712 96.3492 90.6912 96.3025 90.5445C96.2559 90.4045 96.3525 90.3079 96.5925 90.2545C97.0259 89.7279 97.6625 88.7079 98.5025 87.1945C99.3425 85.6812 99.9059 84.4912 100.193 83.6245C100.293 83.3379 100.389 82.8579 100.483 82.1845C100.869 80.4979 101.063 79.3679 101.063 78.7945C101.063 78.2145 100.896 77.7579 100.563 77.4245C100.416 77.2779 100.223 77.2045 99.9825 77.2045C99.5959 77.2045 98.9225 77.4445 97.9625 77.9245C96.8092 78.4112 95.3425 79.4945 93.5625 81.1745C91.7825 82.8545 90.1725 84.6812 88.7325 86.6545C86.5192 89.5345 84.8259 91.9145 83.6525 93.7945C82.4725 95.6679 81.5692 97.5645 80.9425 99.4845L80.1525 101.365C80.1992 101.558 80.1259 102.038 79.9325 102.805C79.7459 103.571 79.5325 104.195 79.2925 104.675C78.6192 107.468 78.2825 110.231 78.2825 112.965C78.2825 115.038 78.4625 116.865 78.8225 118.445C79.1825 120.031 79.6992 121.115 80.3725 121.695C80.7525 122.028 81.3292 122.195 82.1025 122.195C83.0625 122.195 84.2525 121.955 85.6725 121.475C87.0859 120.995 88.8259 120.298 90.8925 119.385C91.9992 118.951 93.0459 118.448 94.0325 117.875C95.0192 117.295 95.7525 116.765 96.2325 116.285C97.4792 115.371 98.4892 114.915 99.2625 114.915C99.7892 114.721 100.149 114.625 100.343 114.625C100.436 114.625 100.496 114.685 100.523 114.805C100.549 114.925 100.563 115.081 100.563 115.275C100.563 115.948 100.199 116.681 99.4725 117.475C98.7525 118.268 97.7925 119.025 96.5925 119.745C95.6325 120.705 94.4792 121.451 93.1325 121.985C91.5925 123.091 89.8025 124.075 87.7625 124.935C85.7159 125.801 83.8525 126.235 82.1725 126.235C81.7859 126.235 81.3059 126.188 80.7325 126.095Z" fill="black"/>
<path d="M111.513 120.975C110.939 120.975 110.483 120.878 110.143 120.685C109.809 120.491 109.329 120.131 108.703 119.605C107.116 117.918 106.323 116.378 106.323 114.985C106.323 114.651 106.349 114.411 106.403 114.265C106.543 113.931 106.603 113.595 106.583 113.255C106.556 112.921 106.543 112.705 106.543 112.605C106.349 112.418 106.253 112.288 106.253 112.215C106.253 112.141 106.303 112.068 106.403 111.995C106.496 111.921 106.566 111.838 106.613 111.745C106.899 111.745 106.996 111.481 106.903 110.955C106.809 110.568 107.003 109.715 107.483 108.395C107.963 107.068 108.563 105.855 109.283 104.755C109.809 103.888 110.589 102.805 111.623 101.505C112.656 100.205 113.583 99.2178 114.403 98.5445C115.556 97.5378 116.589 96.7945 117.503 96.3145C118.416 95.8345 119.426 95.4745 120.533 95.2345C121.493 94.9945 122.139 94.8745 122.473 94.8745C122.813 94.8745 123.113 94.9578 123.373 95.1245C123.639 95.2912 123.989 95.5912 124.423 96.0245C125.723 96.6045 126.623 97.3378 127.123 98.2245C127.629 99.1112 127.883 100.495 127.883 102.375C127.883 105.495 126.609 108.881 124.063 112.535C122.956 114.121 121.923 115.335 120.963 116.175C120.003 117.021 118.729 117.925 117.143 118.885C116.129 119.605 115.203 120.121 114.363 120.435C113.523 120.748 112.573 120.928 111.513 120.975ZM118.443 113.335C119.596 112.035 120.519 110.808 121.213 109.655C121.913 108.501 122.573 107.035 123.193 105.255C123.439 104.435 123.563 103.448 123.563 102.295C123.563 100.855 123.369 100.038 122.983 99.8445C122.503 99.6045 122.023 99.4845 121.543 99.4845C120.483 99.4845 119.376 99.9645 118.223 100.925C116.829 102.131 115.579 103.611 114.473 105.365C113.366 107.118 112.236 109.291 111.083 111.885C110.603 112.898 110.363 113.885 110.363 114.845C110.363 115.565 110.543 116.141 110.903 116.575C111.263 117.008 111.756 117.225 112.383 117.225C113.969 117.225 115.989 115.928 118.443 113.335Z" fill="black"/>
<path d="M157.513 118.734C156.553 118.734 155.759 118.531 155.133 118.124C154.513 117.718 153.986 117.034 153.553 116.074C153.119 114.534 152.903 112.994 152.903 111.454C152.903 110.734 152.976 110.231 153.123 109.944C153.309 109.751 153.393 109.328 153.373 108.674C153.346 108.028 153.333 107.561 153.333 107.274C153.286 106.168 152.949 105.614 152.323 105.614C151.889 105.614 151.409 105.784 150.883 106.124C148.189 107.804 145.929 109.244 144.103 110.444C142.276 111.644 140.523 112.991 138.843 114.484C138.169 115.251 137.666 115.924 137.333 116.504C136.993 117.078 136.753 117.474 136.613 117.694C136.466 117.908 136.273 118.014 136.033 118.014C135.746 118.114 135.553 118.164 135.453 118.164C135.213 118.164 134.926 118.031 134.593 117.764C134.253 117.498 134.036 117.318 133.943 117.224C133.749 117.031 133.436 116.708 133.003 116.254C132.569 115.794 132.329 115.468 132.283 115.274C132.283 114.894 132.439 114.004 132.753 112.604C133.066 111.211 133.316 110.324 133.503 109.944C133.649 109.944 133.866 109.644 134.153 109.044C134.446 108.438 134.713 107.968 134.953 107.634C135.093 106.914 135.716 105.254 136.823 102.654C137.496 101.501 137.966 100.541 138.233 99.7745C138.493 99.0078 138.673 98.0478 138.773 96.8945V96.7445C138.773 96.5512 138.843 96.3945 138.983 96.2745C139.129 96.1545 139.276 96.0945 139.423 96.0945C139.756 95.8545 140.066 95.7345 140.353 95.7345C140.979 95.7345 141.606 96.1212 142.233 96.8945C142.953 97.8078 143.313 98.7678 143.313 99.7745C143.313 101.028 142.519 102.998 140.933 105.684C140.786 106.024 140.583 106.504 140.323 107.124C140.056 107.751 139.923 108.184 139.923 108.424L143.963 105.684C144.349 105.251 145.383 104.484 147.063 103.384C148.743 102.278 149.919 101.651 150.593 101.504C151.746 100.978 152.469 100.714 152.763 100.714C153.336 100.714 154.116 101.148 155.103 102.014C156.089 102.874 156.679 103.594 156.873 104.174C156.873 104.701 156.919 105.084 157.013 105.324C157.253 106.284 157.373 107.414 157.373 108.714C157.373 109.581 157.313 110.361 157.193 111.054C157.073 111.754 156.916 112.151 156.723 112.244C156.723 112.298 156.746 112.371 156.793 112.464C156.846 112.558 156.943 112.604 157.083 112.604V112.964C156.696 112.964 156.649 113.374 156.943 114.194C157.229 115.014 157.613 115.641 158.093 116.074C158.573 116.554 158.813 117.034 158.813 117.514C158.813 118.088 158.379 118.494 157.513 118.734Z" fill="black"/>
<path d="M189.963 118.734C189.003 118.734 188.209 118.531 187.583 118.124C186.956 117.718 186.426 117.034 185.993 116.074C185.559 114.534 185.343 112.994 185.343 111.454C185.343 110.734 185.416 110.231 185.563 109.944C185.756 109.751 185.839 109.328 185.813 108.674C185.793 108.028 185.783 107.561 185.783 107.274C185.736 106.168 185.399 105.614 184.773 105.614C184.339 105.614 183.859 105.784 183.333 106.124C180.639 107.804 178.379 109.244 176.553 110.444C174.726 111.644 172.973 112.991 171.293 114.484C170.619 115.251 170.113 115.924 169.773 116.504C169.439 117.078 169.199 117.474 169.053 117.694C168.906 117.908 168.713 118.014 168.473 118.014C168.186 118.114 167.996 118.164 167.903 118.164C167.663 118.164 167.373 118.031 167.033 117.764C166.699 117.498 166.483 117.318 166.383 117.224C166.189 117.031 165.879 116.708 165.453 116.254C165.019 115.794 164.776 115.468 164.723 115.274C164.723 114.894 164.879 114.004 165.193 112.604C165.506 111.211 165.759 110.324 165.953 109.944C166.099 109.944 166.316 109.644 166.603 109.044C166.889 108.438 167.153 107.968 167.393 107.634C167.539 106.914 168.166 105.254 169.273 102.654C169.946 101.501 170.413 100.541 170.673 99.7745C170.939 99.0078 171.119 98.0478 171.213 96.8945V96.7445C171.213 96.5512 171.286 96.3945 171.433 96.2745C171.579 96.1545 171.723 96.0945 171.863 96.0945C172.203 95.8545 172.516 95.7345 172.803 95.7345C173.429 95.7345 174.053 96.1212 174.673 96.8945C175.399 97.8078 175.763 98.7678 175.763 99.7745C175.763 101.028 174.969 102.998 173.383 105.684C173.236 106.024 173.029 106.504 172.763 107.124C172.503 107.751 172.373 108.184 172.373 108.424L176.403 105.684C176.789 105.251 177.823 104.484 179.503 103.384C181.189 102.278 182.369 101.651 183.043 101.504C184.196 100.978 184.916 100.714 185.203 100.714C185.783 100.714 186.563 101.148 187.543 102.014C188.529 102.874 189.119 103.594 189.313 104.174C189.313 104.701 189.359 105.084 189.453 105.324C189.699 106.284 189.823 107.414 189.823 108.714C189.823 109.581 189.759 110.361 189.633 111.054C189.513 111.754 189.359 112.151 189.173 112.244C189.173 112.298 189.196 112.371 189.243 112.464C189.289 112.558 189.386 112.604 189.533 112.604V112.964C189.146 112.964 189.096 113.374 189.383 114.194C189.676 115.014 190.063 115.641 190.543 116.074C191.023 116.554 191.263 117.034 191.263 117.514C191.263 118.088 190.829 118.494 189.963 118.734Z" fill="black"/>
<path d="M209.573 119.535C208.373 120.588 206.929 121.115 205.243 121.115C204.043 121.115 202.903 120.828 201.823 120.255C200.743 119.675 199.842 118.881 199.122 117.875C198.496 117.101 198.039 116.235 197.753 115.275C197.459 114.315 197.312 113.138 197.312 111.745C197.312 111.265 197.363 110.305 197.463 108.865C197.603 107.085 198.189 105.231 199.223 103.305C200.256 101.385 201.543 99.6679 203.083 98.1546C204.623 96.6412 206.136 95.5946 207.622 95.0146C208.396 94.5346 209.093 94.2946 209.713 94.2946C210.053 94.2946 210.389 94.3179 210.723 94.3646C211.063 94.4179 211.426 94.4679 211.812 94.5146C212.866 94.6546 213.669 94.8579 214.223 95.1246C214.776 95.3912 215.246 95.7879 215.632 96.3146C216.832 97.5146 217.433 98.9079 217.433 100.495C217.239 101.648 216.493 102.971 215.193 104.465C213.899 105.951 212.339 107.151 210.513 108.065C209.646 108.351 208.659 108.495 207.552 108.495C206.066 108.495 204.866 108.185 203.952 107.565C203.519 107.418 203.183 107.345 202.943 107.345C202.509 107.345 202.183 107.635 201.963 108.215C201.749 108.788 201.546 109.845 201.353 111.385C201.306 111.718 201.283 112.198 201.283 112.825C201.283 115.278 202.099 116.625 203.732 116.865C204.839 117.105 205.633 117.225 206.113 117.225C206.686 117.225 207.336 117.031 208.062 116.645L209.433 115.855C209.719 115.708 209.983 115.515 210.223 115.275C210.463 115.035 210.679 114.818 210.872 114.625C210.966 114.531 211.109 114.375 211.302 114.155C211.496 113.941 211.676 113.798 211.842 113.725C212.009 113.651 212.166 113.615 212.312 113.615C212.506 113.615 212.723 113.725 212.963 113.945C213.203 114.158 213.396 114.315 213.543 114.415C213.969 114.415 214.063 114.715 213.823 115.315C213.583 115.915 213.066 116.611 212.272 117.405C211.479 118.198 210.579 118.908 209.573 119.535ZM209.503 104.245C210.316 103.911 211.146 103.311 211.993 102.445C212.833 101.578 213.253 100.858 213.253 100.285C213.253 99.7046 213.036 99.2212 212.603 98.8346C212.169 98.4546 211.569 98.2646 210.802 98.2646C210.222 98.2646 209.789 98.3112 209.503 98.4046C208.829 98.5979 208.036 99.1146 207.122 99.9546C206.209 100.795 205.416 101.648 204.743 102.515C204.069 103.381 203.806 103.885 203.952 104.025C204.192 104.458 205.129 104.675 206.763 104.675C207.869 104.675 208.783 104.531 209.503 104.245Z" fill="black"/>
<path d="M228.172 121.265C227.499 121.358 226.996 121.405 226.662 121.405C224.882 121.405 223.416 120.851 222.262 119.745C221.109 118.638 220.532 117.101 220.532 115.135C220.339 113.021 220.809 110.401 221.942 107.275C223.069 104.148 224.499 101.528 226.232 99.4145C227.432 98.0212 228.466 96.8912 229.332 96.0245C230.192 95.1579 230.986 94.5812 231.712 94.2945C232.719 93.8612 233.846 93.6445 235.092 93.6445C235.959 93.8379 236.812 94.1979 237.652 94.7245C238.499 95.2579 238.922 95.7879 238.922 96.3145L239.282 96.6745C239.569 96.6745 239.832 97.0245 240.072 97.7245C240.312 98.4179 240.432 99.1745 240.432 99.9945C240.432 100.668 240.312 101.245 240.072 101.725C239.879 102.638 239.556 103.431 239.102 104.105C238.642 104.778 238.196 105.115 237.762 105.115C237.236 105.115 236.972 105.258 236.972 105.545C236.972 105.738 236.876 105.835 236.682 105.835C236.442 105.835 236.152 105.688 235.812 105.395C235.479 105.108 235.239 104.771 235.092 104.385C235.092 104.245 235.189 103.838 235.382 103.165C235.576 102.491 235.769 101.745 235.962 100.925C236.109 100.351 236.182 99.8479 236.182 99.4145C236.182 98.4545 235.819 97.9745 235.092 97.9745C234.712 97.9745 234.329 98.0712 233.942 98.2645C232.022 99.3179 230.316 100.998 228.822 103.305C227.336 105.611 226.086 108.785 225.072 112.825C224.832 113.885 224.712 114.725 224.712 115.345C224.712 115.831 224.749 116.218 224.822 116.505C224.896 116.791 224.979 116.958 225.072 117.005C225.312 117.105 225.819 117.155 226.592 117.155C228.366 117.155 229.616 116.938 230.342 116.505C231.876 115.685 233.579 114.578 235.452 113.185C235.646 113.038 235.936 112.785 236.322 112.425C236.709 112.065 237.069 111.815 237.402 111.675C237.742 111.141 238.056 110.815 238.342 110.695C238.629 110.575 239.086 110.515 239.712 110.515C240.339 110.708 240.842 110.961 241.222 111.275C241.609 111.588 241.609 111.841 241.222 112.035C241.082 112.035 240.986 112.081 240.932 112.175C240.886 112.275 240.862 112.348 240.862 112.395C240.962 112.635 240.579 113.235 239.712 114.195C238.846 115.155 237.882 116.055 236.822 116.895C235.769 117.741 235.049 118.165 234.662 118.165C234.469 118.165 234.302 118.188 234.162 118.235C234.016 118.281 233.942 118.401 233.942 118.595C233.942 118.788 233.209 119.231 231.742 119.925C230.276 120.625 229.086 121.071 228.172 121.265Z" fill="black"/>
<path d="M251.603 121.545C250.836 121.405 250.056 120.888 249.263 119.995C248.469 119.108 247.953 118.281 247.713 117.515C247.713 117.415 247.666 117.305 247.573 117.185C247.473 117.065 247.399 116.981 247.353 116.935C247.159 116.788 247.062 115.995 247.062 114.555C247.062 113.401 247.123 112.201 247.243 110.955C247.363 109.701 247.519 108.691 247.713 107.925L249.013 104.105L250.022 101.215L251.973 97.0345L249.083 96.2445C248.749 96.1979 248.473 96.0279 248.253 95.7345C248.039 95.4479 247.933 95.1845 247.933 94.9445C247.933 94.5579 248.136 94.0879 248.543 93.5345C248.949 92.9812 249.273 92.7045 249.513 92.7045C249.659 92.7579 250.046 92.7845 250.673 92.7845C252.113 92.7845 253.192 92.7112 253.912 92.5645C254.392 92.3712 254.729 91.9879 254.923 91.4145C255.116 91.0279 255.346 90.5445 255.613 89.9645C255.873 89.3912 256.123 88.8645 256.363 88.3845C256.509 88.0979 256.739 87.6512 257.053 87.0445C257.366 86.4445 257.763 85.7612 258.243 84.9945C258.336 84.8479 258.553 84.4979 258.893 83.9445C259.226 83.3979 259.633 82.9312 260.113 82.5445C260.453 82.2045 260.862 82.0345 261.342 82.0345C261.822 82.0345 262.446 82.3479 263.212 82.9745C263.312 83.1212 263.446 83.3145 263.613 83.5545C263.779 83.7945 263.863 84.0112 263.863 84.2045C263.863 84.3979 263.669 84.8045 263.283 85.4245C262.996 86.0045 262.722 86.5212 262.462 86.9745C262.196 87.4345 261.966 87.8312 261.773 88.1645C261.199 89.1245 260.793 89.8479 260.553 90.3345C260.066 90.9545 259.822 91.4345 259.822 91.7745C259.822 92.1079 260.136 92.2745 260.762 92.2745C261.436 92.2745 262.566 92.1312 264.152 91.8445C264.826 91.7512 265.283 91.7045 265.523 91.7045C267.203 91.7045 268.116 92.4012 268.262 93.7945C268.309 94.0812 268.333 94.4179 268.333 94.8045C268.333 95.4779 268.106 95.8845 267.652 96.0245C267.192 96.1712 266.169 96.2445 264.583 96.2445C263.049 96.4845 261.462 96.6045 259.822 96.6045C259.536 96.6045 259.213 96.6145 258.853 96.6345C258.493 96.6612 258.119 96.7212 257.732 96.8145C257.352 96.9145 257.076 97.0612 256.902 97.2545C256.736 97.4479 256.556 97.7579 256.363 98.1845C256.223 98.3312 255.886 98.8845 255.353 99.8445C254.679 101.238 254.249 102.081 254.062 102.375C252.763 106.215 251.799 110.155 251.173 114.195C251.079 114.961 251.033 115.441 251.033 115.635C251.033 116.355 251.273 116.861 251.753 117.155C252.233 117.441 253.049 117.585 254.202 117.585C255.836 117.585 257.252 117.415 258.452 117.075C259.899 116.455 260.982 115.928 261.702 115.495C262.136 115.255 262.533 115.025 262.893 114.805C263.253 114.591 263.506 114.435 263.652 114.335C263.792 114.048 263.959 113.905 264.152 113.905C264.539 113.905 264.876 114.291 265.163 115.065C265.163 115.831 264.992 116.501 264.652 117.075C264.319 117.655 263.479 118.328 262.133 119.095C259.346 120.875 256.559 121.765 253.772 121.765C252.999 121.765 252.276 121.691 251.603 121.545Z" fill="black"/>
</g>
<defs>
<clipPath id="clip0_144_2">
<rect width="268" height="240" fill="white"/>
</clipPath>
</defs>
</svg>
